<mxfile host="app.diagrams.net" modified="2023-07-14T02:12:53.947Z" agent="Mozilla/5.0 (Macintosh; Intel Mac OS X 10.15; rv:109.0) Gecko/20100101 Firefox/113.0" version="21.6.2" etag="lw-iy_9JX-nHI4oD9LU_" type="github">
  <diagram name="第 1 页" id="71EjPVg-1d2nFydO0hYb">
    <mxGraphModel>
      <root>
        <mxCell id="0" />
        <mxCell id="1" parent="0" />
      </root>
    </mxGraphModel>
  </diagram>
</mxfile>
